<?xml version="1.0" standalone="no"?><!-- Generator: Gravit.io --><svg xmlns="http://www.w3.org/2000/svg" xmlns:xlink="http://www.w3.org/1999/xlink" style="isolation:isolate" viewBox="70.19 28.777 192.624 41.626" width="192.624" height="41.626"><defs><clipPath id="_clipPath_TQf0Hyjl4If2o6LV74nQMA1kguQ6aXy4"><rect x="70.19" y="28.777" width="192.624" height="41.626"/></clipPath></defs><g clip-path="url(#_clipPath_TQf0Hyjl4If2o6LV74nQMA1kguQ6aXy4)"><g><clipPath id="_clipPath_4b3YstQ6OmPoqgQ8WUHwKICgp3oG35GA"><rect x="70.19" y="28.777" width="192.624" height="41.626" transform="matrix(1,0,0,1,0,0)" fill="rgb(255,255,255)"/></clipPath><g clip-path="url(#_clipPath_4b3YstQ6OmPoqgQ8WUHwKICgp3oG35GA)"><path d=" M 103.687 55.253 C 103.408 55.203 103.239 55.168 103.18 55.149 L 103.18 54.999 C 103.18 54.88 103.209 54.775 103.269 54.686 C 103.329 54.596 103.393 54.507 103.463 54.417 C 103.533 54.328 103.597 54.228 103.657 54.119 C 103.717 54.009 103.747 53.865 103.747 53.686 C 103.747 53.447 103.727 53.168 103.687 52.85 C 103.647 52.532 97.239 36.463 97.239 36.463 L 96.851 35.807 L 96.821 35.807 C 96.681 35.807 96.582 35.847 96.522 35.926 C 96.443 36.086 90.612 46.075 90.612 46.075 C 90.571 46.134 90.497 46.219 90.388 46.328 C 90.278 46.438 90.174 46.503 90.074 46.522 C 90.034 46.522 89.97 46.513 89.88 46.492 C 89.791 46.473 89.726 46.443 89.686 46.403 C 89.567 45.965 89.467 45.537 89.388 45.119 C 89.308 44.702 89.129 44.294 88.85 43.896 C 88.75 43.776 88.114 42.797 87.905 42.538 C 87.696 42.28 86.999 41.448 86.94 41.388 C 86.9 41.369 82.009 37.13 81.701 36.911 C 81.392 36.692 81.178 36.583 81.059 36.583 C 81.019 36.583 80.969 36.588 80.91 36.598 C 80.85 36.608 80.82 36.633 80.82 36.672 L 77.148 48.821 C 77.108 48.861 77.088 48.97 77.088 49.149 L 77.088 49.537 L 77.088 49.955 C 77.088 50.114 77.108 50.204 77.148 50.224 C 77.168 50.283 77.223 50.378 77.312 50.507 C 77.402 50.637 77.501 50.771 77.611 50.91 C 77.72 51.049 77.83 51.179 77.939 51.298 C 78.048 51.417 78.133 51.497 78.193 51.537 L 78.193 51.865 C 77.615 51.885 77.083 51.9 76.596 51.91 C 76.108 51.92 75.635 51.93 75.178 51.94 C 74.72 51.95 74.267 51.96 73.82 51.97 C 73.372 51.98 72.899 51.985 72.402 51.985 L 71.536 51.985 C 71.416 51.925 71.357 51.865 71.357 51.805 L 71.357 51.776 C 72.113 51.438 72.779 51.055 73.357 50.626 C 73.934 50.199 74.322 49.706 74.521 49.149 L 79.387 33.837 C 79.407 33.817 79.417 33.717 79.417 33.538 L 79.417 33.09 L 79.417 32.314 C 79.417 32.016 79.357 31.758 79.238 31.538 C 79.158 31.419 79.044 31.32 78.894 31.24 C 78.745 31.161 78.671 31.041 78.671 30.882 C 78.671 30.842 78.675 30.797 78.685 30.747 C 78.695 30.698 78.75 30.673 78.85 30.673 L 84.641 30.673 C 84.74 30.673 84.795 30.698 84.805 30.747 C 84.815 30.797 84.82 30.842 84.82 30.882 C 84.82 31.021 84.78 31.155 84.701 31.285 C 84.621 31.414 84.537 31.549 84.447 31.688 C 84.357 31.827 84.278 31.966 84.208 32.105 C 84.138 32.245 84.104 32.384 84.104 32.523 C 84.104 32.762 84.163 33.011 84.283 33.27 C 84.402 33.528 84.556 33.782 84.746 34.031 C 84.934 34.28 85.143 34.519 85.372 34.747 L 86.014 35.389 C 86.193 35.548 86.507 35.817 86.955 36.195 C 87.402 36.573 87.88 36.976 88.388 37.404 C 88.895 37.832 89.373 38.239 89.82 38.627 C 90.268 39.015 90.582 39.279 90.761 39.418 C 90.8 39.478 90.895 39.603 91.044 39.791 C 91.194 39.981 91.368 40.075 91.567 40.075 C 91.706 40.075 91.836 39.991 91.955 39.821 C 92.074 39.652 92.154 39.558 92.194 39.538 L 95.806 32.762 C 95.846 32.743 95.866 32.663 95.866 32.523 L 95.866 32.165 C 95.866 31.887 95.855 31.633 95.836 31.404 C 95.816 31.175 95.696 30.932 95.478 30.673 L 95.657 30.583 L 101.269 30.583 C 101.508 30.583 101.627 30.653 101.627 30.792 C 101.627 30.911 101.582 31.026 101.493 31.135 C 101.403 31.245 101.299 31.359 101.179 31.479 C 101.06 31.598 100.955 31.723 100.866 31.852 C 100.776 31.981 100.732 32.116 100.732 32.255 L 100.732 32.434 L 105.986 46.642 C 105.946 46.682 108.44 52.392 108.44 52.392 C 108.44 52.392 108.906 53.223 109.016 53.373 C 109.125 53.522 109.24 53.671 109.359 53.82 C 109.478 53.97 109.578 54.084 109.658 54.164 C 109.677 54.183 109.727 54.233 109.807 54.313 C 109.886 54.392 109.981 54.477 110.09 54.566 C 110.2 54.656 110.314 54.746 110.434 54.835 C 110.553 54.925 110.643 54.989 110.702 55.029 C 110.782 55.089 110.886 55.153 111.016 55.223 C 111.145 55.293 111.274 55.357 111.404 55.417 C 111.533 55.477 111.647 55.546 111.747 55.626 C 111.847 55.705 111.896 55.785 111.896 55.865 C 111.896 55.865 111.829 56.028 111.749 56.078 C 111.67 56.127 111.608 56.113 111.568 56.134 C 111.329 56.113 103.965 55.302 103.687 55.253 Z " fill="rgb(55,53,53)"/><path d=" M 142.704 54.939 C 142.704 54.82 142.644 54.7 142.525 54.581 C 142.465 54.541 142.429 54.48 142.226 54.387 C 141.611 54.103 141.461 53.933 141.092 53.596 C 140.723 53.258 138.275 50.322 137.888 49.702 C 137.418 48.95 129.032 33.299 129.032 33.299 C 128.991 33.199 128.927 33.015 128.837 32.747 C 128.748 32.478 128.703 32.294 128.703 32.194 C 128.683 32.015 128.713 31.856 128.793 31.717 C 128.872 31.578 128.962 31.448 129.061 31.329 C 129.161 31.209 129.255 31.085 129.345 30.956 C 129.435 30.826 129.479 30.682 129.479 30.523 L 128.793 30.523 C 128.474 30.523 128.136 30.528 127.778 30.538 C 127.419 30.548 127.071 30.553 126.733 30.553 L 126.076 30.553 C 125.797 30.553 125.439 30.558 125.001 30.568 C 124.563 30.578 124.14 30.593 123.733 30.612 C 123.325 30.632 122.822 30.652 122.225 30.672 L 122.076 30.791 C 122.215 30.951 122.359 31.135 122.509 31.344 C 122.658 31.553 122.733 31.767 122.733 31.985 L 122.733 32.105 C 122.713 32.185 122.683 32.304 122.643 32.463 C 122.603 32.623 122.573 32.712 122.554 32.732 C 122.554 32.732 113.971 48.258 113.702 48.686 C 113.434 49.114 113.249 49.407 113.15 49.566 C 113.09 49.626 112.971 49.741 112.792 49.91 C 112.613 50.079 112.493 50.183 112.434 50.223 C 112.334 50.283 112.169 50.387 111.941 50.536 C 111.712 50.686 111.468 50.84 111.21 50.999 C 110.951 51.158 110.707 51.308 110.478 51.447 C 110.32 51.526 109.982 51.639 109.986 51.745 C 109.99 51.851 110.038 51.902 110.188 51.94 C 110.339 51.978 116.62 52.034 116.732 51.865 C 116.845 51.695 116.677 51.561 116.568 51.432 C 116.458 51.303 116.344 51.168 116.225 51.029 C 116.105 50.89 115.991 50.745 115.881 50.596 C 115.772 50.447 115.717 50.273 115.717 50.074 C 115.717 50.014 115.737 49.885 115.777 49.686 C 115.777 49.686 118.259 44.731 118.404 44.432 C 118.575 44.08 119.289 44.104 119.449 44.104 C 119.449 44.104 129.2 44.117 129.539 44.104 C 129.879 44.091 130.04 44.25 130.183 44.501 C 131.06 46.046 134.2 51.574 134.286 51.745 C 134.465 52.063 134.747 52.734 134.747 52.993 C 134.747 53.388 134.48 53.459 134.39 53.538 C 134.301 53.618 133.952 53.827 133.882 53.877 C 133.812 53.926 133.788 54.14 133.927 54.163 C 134.703 54.29 135.161 54.385 135.161 54.385 L 141.271 55.237 L 141.808 55.267 C 141.808 55.267 142.182 55.252 142.391 55.223 C 142.6 55.193 142.704 55.098 142.704 54.939 Z  M 128.852 42.373 C 128.88 42.557 128.355 42.582 128.315 42.582 L 120.106 42.582 C 120.026 42.582 119.611 42.575 119.598 42.313 C 119.598 42.313 119.597 42.298 119.597 42.281 C 119.594 42.235 119.595 42.254 119.597 42.281 C 119.597 42.292 119.597 42.294 119.598 42.313 L 120.964 39.679 C 120.964 39.679 123.715 34.76 123.935 34.395 C 124.155 34.031 124.563 34.214 124.643 34.373 C 124.643 34.373 128.803 42.046 128.852 42.373 Z " fill="rgb(55,53,53)"/><path d=" M 145.301 54.387 C 145.64 54.118 146.157 53.984 146.853 53.984 C 147.51 53.984 148.043 54.093 148.45 54.312 C 148.859 54.531 149.227 54.77 149.555 55.029 C 149.883 55.287 150.227 55.526 150.585 55.745 C 150.943 55.964 151.401 56.073 151.958 56.073 C 152.535 56.073 153.003 56.004 153.361 55.865 C 153.719 55.725 153.993 55.541 154.182 55.312 C 154.474 54.968 154.848 54.544 154.858 53.656 C 154.869 52.768 154.844 33.791 154.824 33.403 C 154.804 33.015 154.784 32.742 154.764 32.583 C 154.705 32.384 154.59 32.195 154.421 32.016 C 154.252 31.836 154.082 31.668 153.913 31.508 C 153.744 31.349 153.59 31.205 153.451 31.075 C 153.311 30.946 153.242 30.832 153.242 30.732 L 161.272 30.732 C 161.351 30.732 161.401 30.757 161.421 30.807 C 161.441 30.857 161.451 30.901 161.451 30.941 C 161.451 31.001 161.366 31.095 161.197 31.225 C 161.028 31.354 160.844 31.503 160.645 31.672 C 160.446 31.842 160.262 32.021 160.093 32.21 C 159.924 32.399 159.839 32.593 159.839 32.792 L 159.839 50.372 C 159.839 51.328 159.6 52.233 159.123 53.089 C 158.645 53.944 157.958 54.7 157.063 55.357 C 156.167 56.014 155.082 56.531 153.809 56.909 C 152.535 57.287 151.103 57.476 149.51 57.476 C 149.013 57.476 148.485 57.436 147.928 57.357 C 147.371 57.277 146.864 57.153 146.406 56.984 C 145.948 56.815 145.565 56.596 145.256 56.327 C 144.948 56.059 144.794 55.745 144.794 55.387 C 144.794 54.989 144.963 54.656 145.301 54.387 Z " fill="rgb(55,53,53)"/><path d=" M 192.498 38.731 C 192.338 37.816 191.985 36.906 191.438 36 C 190.891 35.095 190.199 34.264 189.363 33.507 C 188.962 33.173 188.267 32.684 188.267 32.684 C 188.267 32.684 187.284 32.025 186.766 31.746 C 186.249 31.488 185.692 31.229 185.095 30.97 C 184.498 30.712 183.871 30.483 183.214 30.284 C 182.557 30.085 181.88 29.921 181.184 29.791 C 180.487 29.662 179.791 29.587 179.094 29.567 C 176.945 29.528 174.984 29.722 173.213 30.149 C 171.442 30.578 169.874 31.179 168.511 31.955 C 167.148 32.731 166.004 33.657 165.078 34.731 C 164.153 35.806 163.302 37.103 162.993 37.987 C 162.684 38.871 162.583 39.492 162.523 39.83 C 162.463 40.168 162.466 41.278 162.466 41.358 C 162.506 42.651 162.869 43.945 163.556 45.238 C 164.243 46.532 165.217 47.701 166.481 48.745 C 167.745 49.79 169.277 50.641 171.079 51.297 C 172.88 51.954 174.915 52.282 177.184 52.282 C 178.139 52.282 179.089 52.203 180.035 52.044 C 180.98 51.885 181.87 51.676 182.706 51.417 C 184.418 50.9 185.895 50.248 187.139 49.462 C 188.383 48.676 189.413 47.8 190.229 46.835 C 191.045 45.87 191.647 44.84 192.035 43.746 C 192.423 42.651 192.573 41.635 192.617 40.432 C 192.654 39.455 192.518 38.791 192.498 38.731 Z  M 189.214 43.209 C 189.214 43.965 189.12 44.666 188.931 45.313 C 188.741 45.96 188.413 46.552 187.945 47.089 C 187.478 47.626 186.851 48.104 186.065 48.522 C 185.278 48.939 184.289 49.288 183.094 49.566 C 182.617 49.666 182.174 49.726 181.766 49.745 C 181.358 49.765 180.915 49.775 180.438 49.775 C 178.208 49.775 176.193 49.422 174.392 48.716 C 172.591 48.009 171.049 47.104 169.765 45.999 C 168.482 44.895 167.491 43.676 166.795 42.343 C 166.098 41.01 165.75 39.716 165.75 38.463 C 165.75 37.567 165.944 36.716 166.332 35.911 C 166.72 35.105 167.302 34.393 168.079 33.776 C 168.855 33.16 169.82 32.667 170.974 32.299 C 172.128 31.931 173.482 31.747 175.034 31.747 C 175.969 31.747 176.88 31.841 177.766 32.03 C 178.651 32.22 179.492 32.453 180.288 32.732 C 181.741 33.249 183.025 33.896 184.139 34.672 C 185.254 35.448 186.184 36.299 186.93 37.224 C 187.677 38.149 188.244 39.124 188.632 40.149 C 189.02 41.174 189.214 42.194 189.214 43.209 Z " fill="rgb(55,53,53)"/><path d=" M 205.616 55.745 C 203.506 55.745 197.861 55.8 197.125 55.79 C 196.389 55.78 195.727 55.77 195.14 55.76 C 194.553 55.75 194.12 55.745 193.841 55.745 C 193.722 55.725 193.662 55.675 193.662 55.596 C 193.662 55.536 193.752 55.447 193.931 55.327 C 194.11 55.208 194.207 55.173 194.416 55.024 C 194.625 54.875 194.753 54.854 194.942 54.686 C 195.168 54.535 195.3 54.404 195.424 54.014 C 195.575 53.536 195.573 52.372 195.573 52.372 L 195.573 32.821 C 195.573 32.603 195.508 32.399 195.379 32.209 C 195.249 32.021 195.105 31.841 194.946 31.672 C 194.786 31.503 194.642 31.344 194.513 31.195 C 194.383 31.045 194.319 30.901 194.319 30.762 C 194.319 30.742 194.329 30.722 194.349 30.702 C 194.368 30.682 194.379 30.662 194.379 30.642 C 194.657 30.583 194.881 30.548 195.05 30.538 C 195.219 30.528 195.443 30.523 195.722 30.523 C 196.12 30.523 196.518 30.543 196.916 30.583 C 197.314 30.623 197.712 30.642 198.11 30.642 L 198.2 30.642 C 198.279 30.642 198.463 30.638 198.752 30.627 C 199.04 30.618 199.354 30.608 199.693 30.598 C 200.031 30.588 200.344 30.573 200.633 30.553 C 200.921 30.533 201.096 30.523 201.155 30.523 L 201.245 30.523 C 201.444 30.523 201.598 30.538 201.708 30.568 C 201.817 30.598 201.872 30.672 201.872 30.792 C 201.872 30.851 201.817 30.941 201.708 31.06 C 201.598 31.18 201.479 31.309 201.349 31.448 C 201.22 31.588 200.702 31.906 200.648 32.403 C 200.593 32.901 200.513 39.483 200.424 43.015 C 200.334 46.547 200.29 49.624 200.29 53.185 C 200.29 53.324 200.319 53.474 200.379 53.633 C 200.439 53.792 200.588 53.912 200.827 53.991 C 200.827 53.991 204.84 53.797 205.855 53.768 C 206.87 53.738 207.79 53.708 208.616 53.678 C 209.442 53.648 210.119 53.623 210.646 53.603 C 211.173 53.583 211.467 53.563 211.527 53.544 L 217.169 52.678 C 217.288 52.658 217.368 52.648 217.408 52.648 C 217.507 52.648 217.602 52.658 217.691 52.678 C 217.781 52.698 217.826 52.748 217.826 52.827 C 217.826 52.927 217.776 53.016 217.676 53.096 L 214.154 56.521 C 214.094 56.541 214.044 56.551 214.005 56.551 C 213.865 56.551 213.701 56.511 213.512 56.432 C 213.323 56.352 213.104 56.262 212.855 56.163 C 212.606 56.063 212.333 55.969 212.034 55.879 C 211.736 55.79 211.407 55.745 211.049 55.745 L 205.616 55.745 Z " fill="rgb(55,53,53)"/><path d=" M 222.105 54.238 C 222.214 54.168 222.344 54.099 222.493 54.029 C 222.642 53.959 222.883 53.951 223.195 53.566 C 223.506 53.182 223.638 52.655 223.657 51.959 C 223.676 51.264 223.672 50.522 223.672 50.522 L 223.672 35.269 C 223.672 35.19 223.667 35.03 223.657 34.792 C 223.647 34.553 223.632 34.294 223.613 34.016 C 223.592 33.737 223.572 33.469 223.553 33.21 C 223.533 32.951 223.523 32.762 223.523 32.643 C 223.503 32.463 223.419 32.289 223.269 32.12 C 223.12 31.951 222.956 31.787 222.777 31.628 C 222.598 31.469 222.438 31.319 222.299 31.18 C 222.16 31.041 222.09 30.911 222.09 30.792 C 222.09 30.752 222.095 30.708 222.105 30.658 C 222.115 30.608 222.169 30.583 222.269 30.583 C 222.269 30.583 223.253 30.503 223.676 30.503 C 224.099 30.503 224.706 30.547 225.462 30.597 C 226.872 30.691 226.916 30.578 228.018 30.567 C 229.119 30.555 229.928 30.503 229.928 30.503 C 230.007 30.503 230.274 30.608 230.285 30.658 C 230.294 30.708 230.295 30.657 230.3 30.792 C 230.304 30.926 230.069 31.161 230.069 31.161 C 229.551 31.44 229.364 31.508 229.046 31.866 C 228.727 32.225 228.568 32.633 228.568 33.09 L 228.568 53.566 C 228.568 53.845 228.643 54.078 228.792 54.268 C 228.941 54.457 229.1 54.616 229.27 54.745 C 229.438 54.875 229.598 54.994 229.747 55.104 C 229.897 55.213 229.971 55.327 229.971 55.447 C 229.971 55.466 229.966 55.526 229.956 55.626 C 229.946 55.725 229.882 55.765 229.762 55.745 L 222.12 54.671 C 222.02 54.651 221.966 54.616 221.956 54.566 C 221.945 54.516 221.941 54.472 221.941 54.432 C 221.941 54.372 221.995 54.307 222.105 54.238 Z " fill="rgb(55,53,53)"/><path d=" M 235.199 55.297 C 235.147 55.043 236.021 54.731 236.134 54.667 C 236.614 54.393 236.436 54.531 236.766 54.193 C 237.174 53.775 237.418 53.307 237.498 52.79 C 237.537 51.655 237.572 50.561 237.602 49.506 C 237.632 48.452 237.652 47.407 237.662 46.372 C 237.672 45.338 237.677 44.293 237.677 43.238 L 237.677 39.955 L 237.677 38.582 C 237.677 37.925 237.672 37.224 237.662 36.477 C 237.652 35.731 237.647 35.03 237.647 34.373 C 237.647 33.716 237.684 33.429 237.647 33 C 237.61 32.571 237.27 31.996 236.96 31.597 C 236.651 31.198 235.99 30.791 235.901 30.732 C 235.811 30.672 235.756 30.632 235.736 30.612 L 235.736 30.553 C 235.736 30.473 235.796 30.423 235.915 30.403 C 238.832 30.371 250.755 30.409 252.184 30.333 C 252.401 30.322 253.424 30.254 253.573 30.194 C 253.723 30.135 253.862 30.07 253.991 30 C 254.12 29.931 254.26 29.866 254.409 29.806 C 254.558 29.747 254.732 29.717 254.932 29.717 C 254.951 29.717 255.129 29.822 255.362 30.127 C 255.594 30.431 257.738 33.47 257.738 33.47 C 257.738 33.47 257.838 33.71 257.738 33.799 C 257.637 33.888 257.409 33.799 257.409 33.799 C 256.494 33.381 255.479 33.003 254.364 32.664 C 253.25 32.326 252.096 32.157 250.901 32.157 L 243.408 32.157 C 243.249 32.157 242.8 32.233 242.8 32.233 C 242.8 32.233 242.556 32.378 242.543 32.485 C 242.48 33.004 242.438 33.737 242.408 34.433 C 242.379 35.13 242.364 35.906 242.364 36.761 L 242.364 37.716 C 242.364 37.716 242.398 38.027 242.543 38.045 C 242.687 38.062 245.409 38.045 245.409 38.045 C 246.583 38.045 247.642 38.05 248.588 38.059 C 249.533 38.07 250.543 38.025 251.618 37.925 C 251.817 37.906 252.026 37.861 252.245 37.791 C 252.464 37.721 252.678 37.647 252.887 37.567 C 253.096 37.488 253.29 37.418 253.469 37.358 C 253.648 37.298 253.797 37.268 253.917 37.268 C 254.135 37.268 254.245 37.338 254.245 37.477 L 254.245 40.813 C 254.245 40.853 254.195 40.883 254.096 40.903 C 253.996 40.923 253.926 40.932 253.887 40.932 C 253.827 40.932 253.717 40.888 253.558 40.798 C 253.399 40.709 253.22 40.604 253.021 40.485 C 252.822 40.365 252.613 40.251 252.394 40.141 C 252.175 40.032 251.986 39.958 251.827 39.918 C 251.767 39.918 250.304 39.828 250.245 39.828 C 250.205 39.828 247.12 39.798 246.901 39.798 C 246.782 39.798 245.618 39.803 245.259 39.813 C 244.901 39.823 244.562 39.828 244.244 39.828 C 243.946 39.828 243.334 39.838 243.065 39.858 C 242.797 39.878 242.622 39.898 242.543 39.918 C 242.523 39.938 242.488 39.958 242.438 39.977 C 242.388 39.997 242.364 40.017 242.364 40.037 L 242.364 51.454 C 242.364 52.19 242.582 52.732 243.02 53.081 C 243.458 53.429 244.224 53.643 245.319 53.722 C 245.558 53.722 245.966 53.727 246.543 53.737 C 247.12 53.747 247.727 53.752 248.364 53.752 L 250.185 53.752 L 251.379 53.752 C 253.488 53.752 253.118 53.772 255.227 53.633 C 255.307 53.633 258.899 53.305 258.899 53.305 L 261.855 52.767 L 262.422 52.767 C 262.422 52.867 262.292 53.081 262.034 53.409 C 261.775 53.737 260.456 55.585 260.108 55.864 C 259.76 56.143 259.496 56.282 259.317 56.282 L 259.228 56.282 C 258.75 55.864 258.232 55.63 257.675 55.581 C 257.118 55.531 256.422 55.506 255.586 55.506 L 235.946 55.513 C 235.946 55.513 235.251 55.551 235.199 55.297 Z " fill="rgb(55,53,53)"/><g><path d=" M 247.127 69.539 L 247.127 69.198 L 246.921 69.07 L 245.75 66.528 L 245.726 65.76 L 245.473 65.777 L 244.888 63.372 L 244.888 62.604 L 243.875 62.604 L 242.862 62.604 L 242.862 63.372 L 242.277 65.777 L 242.023 65.76 L 242 66.528 L 240.828 69.07 L 240.623 69.198 L 240.623 69.539 L 241.952 69.539 L 241.944 69.121 C 241.944 69.121 241.96 68.712 242.498 68.046 C 243.036 67.381 243.875 67.398 243.875 67.398 C 243.875 67.398 244.714 67.381 245.252 68.046 C 245.79 68.712 245.806 69.121 245.806 69.121 L 245.798 69.539 L 247.127 69.539 Z  M 244.619 65.743 L 243.875 65.76 L 243.131 65.743 L 243.487 63.679 L 243.875 63.679 L 244.263 63.679 L 244.619 65.743 Z " fill="rgb(55,53,53)"/><path d=" M 251.759 66.288 C 252.107 66.159 252.357 65.938 252.509 65.625 C 252.66 65.312 252.736 64.994 252.736 64.671 C 252.736 64.403 252.697 64.164 252.619 63.955 C 252.541 63.746 252.435 63.555 252.301 63.382 C 252.14 63.173 251.943 63.014 251.71 62.906 C 251.478 62.799 251.145 62.74 250.714 62.731 L 247.693 62.731 L 247.693 69.54 L 248.982 69.54 L 248.982 66.87 L 250.271 66.87 C 250.639 66.87 250.889 66.942 251.023 67.087 C 251.157 67.232 251.227 67.521 251.232 67.956 L 251.241 68.589 C 251.243 68.789 251.262 68.984 251.296 69.175 C 251.313 69.268 251.342 69.389 251.382 69.54 L 252.839 69.54 L 252.839 69.369 C 252.711 69.286 252.63 69.157 252.595 68.981 C 252.572 68.87 252.56 68.66 252.56 68.348 L 252.56 67.891 C 252.56 67.414 252.5 67.059 252.378 66.826 C 252.257 66.594 252.05 66.414 251.759 66.288 Z  M 251.412 64.865 C 251.412 65.247 251.287 65.503 251.038 65.632 C 250.896 65.706 250.685 65.743 250.403 65.743 L 248.982 65.743 L 248.982 63.913 L 250.439 63.913 C 250.711 63.913 250.914 63.953 251.05 64.034 C 251.291 64.175 251.412 64.452 251.412 64.865 Z " fill="rgb(55,53,53)"/><path d=" M 241.334 64.888 C 241.334 64.152 241.148 63.608 240.776 63.257 C 240.405 62.906 239.906 62.731 239.281 62.731 L 236.569 62.731 L 236.569 69.54 L 237.88 69.54 L 237.88 67.092 L 239.195 67.092 C 239.882 67.092 240.41 66.925 240.779 66.593 C 241.149 66.26 241.334 65.692 241.334 64.888 Z  M 240.023 64.897 C 240.023 65.251 239.939 65.51 239.772 65.673 C 239.605 65.837 239.371 65.918 239.07 65.918 L 237.88 65.918 L 237.88 63.913 L 239.07 63.913 C 239.371 63.913 239.605 63.989 239.772 64.14 C 239.939 64.291 240.023 64.543 240.023 64.897 Z " fill="rgb(55,53,53)"/><path d=" M 255.204 62.73 L 253.893 62.73 L 253.893 69.539 L 255.204 69.539 L 255.204 62.73 Z " fill="rgb(55,53,53)"/><path d=" M 255.779 67.438 C 255.779 68.146 256.017 68.703 256.494 69.108 C 256.97 69.513 257.624 69.716 258.456 69.716 C 259.27 69.716 259.9 69.51 260.346 69.099 C 260.792 68.688 261.015 68.171 261.015 67.549 C 261.015 66.942 260.827 66.479 260.45 66.158 C 260.208 65.952 259.844 65.787 259.358 65.664 L 258.25 65.382 C 257.822 65.274 257.542 65.181 257.411 65.1 C 257.206 64.98 257.103 64.799 257.103 64.555 C 257.103 64.29 257.207 64.084 257.415 63.936 C 257.623 63.788 257.901 63.714 258.25 63.714 C 258.563 63.714 258.825 63.772 259.036 63.885 C 259.352 64.058 259.522 64.349 259.545 64.759 L 260.814 64.759 C 260.791 64.035 260.541 63.483 260.066 63.102 C 259.59 62.722 259.015 62.532 258.341 62.532 C 257.534 62.532 256.923 62.734 256.506 63.137 C 256.09 63.541 255.882 64.047 255.882 64.657 C 255.882 65.325 256.095 65.816 256.52 66.131 C 256.772 66.319 257.233 66.493 257.905 66.653 L 258.589 66.814 C 258.989 66.907 259.282 67.013 259.466 67.133 C 259.65 67.256 259.743 67.43 259.743 67.655 C 259.743 68.04 259.554 68.303 259.178 68.445 C 258.98 68.519 258.722 68.556 258.404 68.556 C 257.873 68.556 257.498 68.416 257.279 68.136 C 257.16 67.982 257.08 67.749 257.039 67.438 L 255.779 67.438 Z " fill="rgb(55,53,53)"/><path d=" M 243.722 57.324 L 243.257 62.234 L 244.526 62.234 L 244.018 57.324 L 243.722 57.324 Z " fill="rgb(55,53,53)"/></g></g></g></g></svg>